<?xml version="1.0" encoding="UTF-8"?>
<svg xmlns="http://www.w3.org/2000/svg" xmlns:xlink="http://www.w3.org/1999/xlink" width="143pt" height="38pt" viewBox="0 0 143 38">
<path fill-rule="nonzero" fill="rgb(0%, 33.332825%, 64.704895%)" fill-opacity="1" d="M 27.074219 30.617188 C 27.074219 34.816406 30.199219 38 34.292969 38 L 41.957031 38 L 41.957031 23.261719 L 34.292969 23.261719 C 30.199219 23.261719 27.074219 26.445312 27.074219 30.617188 Z M 38.695312 28.628906 L 38.695312 32.632812 C 38.003906 34.082031 36.582031 35.046875 34.820312 35.046875 C 32.367188 35.046875 30.5 33.148438 30.5 30.617188 C 30.5 28.085938 32.367188 26.214844 34.820312 26.214844 C 36.574219 26.214844 37.996094 27.179688 38.695312 28.628906 Z M 38.695312 28.628906 "/>
<path fill-rule="nonzero" fill="rgb(0%, 33.332825%, 64.704895%)" fill-opacity="1" d="M 45.441406 38 L 48.875 38 L 48.875 26.613281 L 55.273438 26.613281 L 55.273438 38 L 58.695312 38 L 58.695312 23.261719 L 45.441406 23.261719 Z M 45.441406 38 "/>
<path fill-rule="nonzero" fill="rgb(0%, 33.332825%, 64.704895%)" fill-opacity="1" d="M 62.179688 38 L 65.613281 38 L 65.613281 26.613281 L 72.011719 26.613281 L 72.011719 38 L 75.4375 38 L 75.4375 23.261719 L 62.179688 23.261719 Z M 62.179688 38 "/>
<path fill-rule="nonzero" fill="rgb(0%, 33.332825%, 64.704895%)" fill-opacity="1" d="M 82.355469 16.699219 L 78.921875 16.699219 L 78.921875 38 L 82.355469 38 L 82.355469 26.613281 L 89.03125 26.613281 L 89.03125 38 L 92.457031 38 L 92.457031 23.261719 L 82.355469 23.261719 Z M 82.355469 16.699219 "/>
<path fill-rule="nonzero" fill="rgb(0%, 33.332825%, 64.704895%)" fill-opacity="1" d="M 102.464844 22.917969 C 98.371094 22.917969 95.246094 26.101562 95.246094 30.617188 C 95.246094 34.816406 98.371094 38 102.464844 38 L 108.652344 38 L 108.652344 35.015625 L 102.464844 35.015625 C 100.652344 35.015625 99.261719 33.765625 98.816406 31.917969 L 109.683594 31.917969 L 109.683594 30.617188 C 109.683594 26.101562 106.5625 22.917969 102.464844 22.917969 Z M 98.867188 28.9375 C 99.371094 27.035156 100.734375 25.902344 102.464844 25.902344 C 104.199219 25.902344 105.558594 27.035156 106.066406 28.9375 Z M 98.867188 28.9375 "/>
<path fill-rule="nonzero" fill="rgb(0%, 33.332825%, 64.704895%)" fill-opacity="1" d="M 114.261719 15.625 C 112.808594 15.625 111.558594 16.792969 111.558594 18.324219 C 111.558594 19.175781 111.921875 20.027344 112.644531 20.511719 L 115.902344 20.511719 C 116.542969 20.027344 116.902344 19.175781 116.902344 18.324219 C 116.902344 16.792969 115.789062 15.625 114.253906 15.625 Z M 114.261719 15.625 "/>
<path fill-rule="nonzero" fill="rgb(0%, 33.332825%, 64.704895%)" fill-opacity="1" d="M 112.558594 23.261719 L 115.984375 23.261719 L 115.984375 38 L 112.558594 38 Z M 112.558594 23.261719 "/>
<path fill-rule="nonzero" fill="rgb(0%, 33.332825%, 64.704895%)" fill-opacity="1" d="M 11.078125 23.261719 L 1.257812 23.261719 L 1.257812 38 L 4.683594 38 L 4.683594 26.613281 L 11.078125 26.613281 L 11.078125 38 L 14.511719 38 L 14.511719 26.613281 L 20.910156 26.613281 L 20.910156 38 L 24.335938 38 L 24.335938 23.261719 Z M 11.078125 23.261719 "/>
<path fill-rule="nonzero" fill="rgb(0%, 33.332825%, 64.704895%)" fill-opacity="1" d="M 129.300781 23.261719 L 119.46875 23.261719 L 119.46875 38 L 122.902344 38 L 122.902344 26.613281 L 129.300781 26.613281 L 129.300781 38 L 132.726562 38 L 132.726562 26.613281 L 138.582031 26.613281 L 138.582031 38 L 142.007812 38 L 142.007812 23.261719 Z M 129.300781 23.261719 "/>
<path fill-rule="nonzero" fill="rgb(0%, 33.332825%, 64.704895%)" fill-opacity="1" d="M 15.386719 8.980469 C 15.914062 9.285156 16.5 9.4375 17.160156 9.4375 C 17.660156 9.4375 18.117188 9.355469 18.53125 9.179688 C 18.945312 9 19.308594 8.757812 19.601562 8.449219 C 19.894531 8.144531 20.105469 7.789062 20.226562 7.390625 L 18.660156 6.695312 C 18.546875 7.03125 18.359375 7.292969 18.09375 7.492188 C 17.832031 7.691406 17.515625 7.78125 17.152344 7.78125 C 16.839844 7.78125 16.558594 7.707031 16.320312 7.550781 C 16.070312 7.398438 15.882812 7.175781 15.738281 6.902344 C 15.597656 6.625 15.527344 6.300781 15.527344 5.941406 C 15.527344 5.582031 15.597656 5.261719 15.738281 4.984375 C 15.882812 4.707031 16.070312 4.484375 16.320312 4.332031 C 16.566406 4.179688 16.84375 4.101562 17.152344 4.101562 C 17.507812 4.101562 17.816406 4.203125 18.085938 4.394531 C 18.359375 4.59375 18.546875 4.851562 18.660156 5.191406 L 20.226562 4.5 C 20.097656 4.085938 19.886719 3.71875 19.585938 3.410156 C 19.285156 3.105469 18.929688 2.867188 18.515625 2.691406 C 18.101562 2.523438 17.644531 2.429688 17.152344 2.429688 C 16.492188 2.429688 15.90625 2.582031 15.371094 2.882812 C 14.84375 3.191406 14.421875 3.605469 14.121094 4.125 C 13.8125 4.652344 13.660156 5.246094 13.660156 5.910156 C 13.660156 6.578125 13.820312 7.167969 14.128906 7.707031 C 14.4375 8.234375 14.851562 8.65625 15.378906 8.964844 Z M 15.386719 8.980469 "/>
<path fill-rule="nonzero" fill="rgb(0%, 33.332825%, 64.704895%)" fill-opacity="1" d="M 142.78125 4.453125 C 142.640625 4.054688 142.429688 3.710938 142.148438 3.40625 C 141.871094 3.097656 141.53125 2.867188 141.132812 2.699219 C 140.734375 2.53125 140.269531 2.445312 139.75 2.445312 C 139.125 2.445312 138.558594 2.597656 138.0625 2.898438 C 137.566406 3.203125 137.167969 3.613281 136.871094 4.140625 C 136.578125 4.660156 136.4375 5.261719 136.4375 5.933594 C 136.4375 6.609375 136.578125 7.167969 136.859375 7.699219 C 137.136719 8.226562 137.535156 8.648438 138.046875 8.972656 C 138.558594 9.285156 139.167969 9.445312 139.867188 9.445312 C 140.320312 9.445312 140.734375 9.378906 141.109375 9.246094 C 141.488281 9.109375 141.816406 8.925781 142.089844 8.679688 C 142.367188 8.433594 142.570312 8.152344 142.699219 7.820312 L 141.253906 7.125 C 141.125 7.351562 140.945312 7.53125 140.71875 7.660156 C 140.492188 7.789062 140.214844 7.859375 139.890625 7.859375 C 139.539062 7.859375 139.238281 7.78125 138.988281 7.621094 C 138.738281 7.460938 138.550781 7.238281 138.429688 6.953125 C 138.371094 6.808594 138.324219 6.648438 138.3125 6.480469 L 142.917969 6.480469 C 142.949219 6.386719 142.96875 6.28125 142.984375 6.15625 C 143 6.035156 143 5.902344 143 5.773438 C 143 5.304688 142.925781 4.875 142.78125 4.476562 Z M 138.933594 4.15625 C 139.160156 4.003906 139.433594 3.925781 139.742188 3.925781 C 140.050781 3.925781 140.335938 4.003906 140.554688 4.164062 C 140.773438 4.324219 140.929688 4.539062 141.019531 4.816406 C 141.050781 4.90625 141.058594 5.015625 141.066406 5.113281 L 138.363281 5.113281 C 138.386719 5.023438 138.394531 4.921875 138.421875 4.847656 C 138.535156 4.546875 138.703125 4.316406 138.929688 4.15625 Z M 138.933594 4.15625 "/>
<path fill-rule="nonzero" fill="rgb(0%, 33.332825%, 64.704895%)" fill-opacity="1" d="M 30.558594 5.382812 C 30.558594 5.121094 30.613281 4.890625 30.710938 4.707031 C 30.808594 4.523438 30.953125 4.371094 31.140625 4.261719 C 31.320312 4.15625 31.53125 4.101562 31.765625 4.101562 C 31.996094 4.101562 32.214844 4.15625 32.398438 4.261719 C 32.578125 4.371094 32.71875 4.515625 32.816406 4.707031 C 32.917969 4.890625 32.96875 5.121094 32.96875 5.382812 L 32.96875 9.292969 L 34.773438 9.292969 L 34.773438 4.984375 C 34.773438 4.476562 34.667969 4.03125 34.460938 3.648438 C 34.25 3.265625 33.960938 2.976562 33.585938 2.761719 C 33.210938 2.546875 32.78125 2.4375 32.277344 2.4375 C 31.816406 2.4375 31.417969 2.53125 31.078125 2.730469 C 30.792969 2.890625 30.589844 3.144531 30.433594 3.449219 L 30.433594 2.589844 L 28.746094 2.589844 L 28.746094 9.292969 L 30.550781 9.292969 L 30.550781 5.382812 Z M 30.558594 5.382812 "/>
<path fill-rule="nonzero" fill="rgb(0%, 33.332825%, 64.704895%)" fill-opacity="1" d="M 36.085938 0.152344 L 37.890625 0.152344 L 37.890625 1.992188 L 36.085938 1.992188 Z M 36.085938 0.152344 "/>
<path fill-rule="nonzero" fill="rgb(0%, 33.332825%, 64.704895%)" fill-opacity="1" d="M 99.449219 5.382812 C 99.449219 5.121094 99.5 4.890625 99.597656 4.707031 C 99.695312 4.523438 99.839844 4.371094 100.027344 4.261719 C 100.207031 4.15625 100.417969 4.101562 100.652344 4.101562 C 100.886719 4.101562 101.105469 4.15625 101.285156 4.261719 C 101.464844 4.371094 101.609375 4.515625 101.707031 4.707031 C 101.804688 4.890625 101.855469 5.121094 101.855469 5.382812 L 101.855469 9.292969 L 103.664062 9.292969 L 103.664062 4.984375 C 103.664062 4.476562 103.558594 4.03125 103.347656 3.648438 C 103.136719 3.265625 102.851562 2.976562 102.472656 2.761719 C 102.097656 2.546875 101.660156 2.4375 101.164062 2.4375 C 100.707031 2.4375 100.304688 2.53125 99.96875 2.730469 C 99.75 2.851562 99.582031 3.035156 99.441406 3.242188 L 99.441406 0 L 97.632812 0 L 97.632812 9.285156 L 99.441406 9.285156 L 99.441406 5.375 Z M 99.449219 5.382812 "/>
<path fill-rule="nonzero" fill="rgb(0%, 33.332825%, 64.704895%)" fill-opacity="1" d="M 127.117188 9.09375 C 127.496094 9.324219 127.945312 9.445312 128.472656 9.445312 C 128.933594 9.445312 129.332031 9.347656 129.667969 9.15625 C 129.957031 8.992188 130.160156 8.742188 130.316406 8.433594 L 130.316406 9.292969 L 132.003906 9.292969 L 132.003906 2.589844 L 130.195312 2.589844 L 130.195312 6.503906 C 130.195312 6.753906 130.144531 6.976562 130.046875 7.167969 C 129.949219 7.359375 129.804688 7.515625 129.625 7.613281 C 129.445312 7.722656 129.234375 7.773438 128.992188 7.773438 C 128.75 7.773438 128.546875 7.722656 128.367188 7.613281 C 128.1875 7.507812 128.042969 7.359375 127.9375 7.167969 C 127.839844 6.976562 127.789062 6.753906 127.789062 6.503906 L 127.789062 2.589844 L 125.980469 2.589844 L 125.980469 6.65625 C 125.980469 7.214844 126.078125 7.699219 126.265625 8.113281 C 126.457031 8.527344 126.742188 8.855469 127.117188 9.085938 Z M 127.117188 9.09375 "/>
<path fill-rule="nonzero" fill="rgb(0%, 33.332825%, 64.704895%)" fill-opacity="1" d="M 133.449219 0.0078125 L 135.253906 0.0078125 L 135.253906 9.292969 L 133.449219 9.292969 Z M 133.449219 0.0078125 "/>
<path fill-rule="nonzero" fill="rgb(0%, 33.332825%, 64.704895%)" fill-opacity="1" d="M 83.695312 8.984375 C 84.226562 9.292969 84.824219 9.4375 85.46875 9.4375 C 86.117188 9.4375 86.710938 9.285156 87.238281 8.984375 C 87.765625 8.6875 88.195312 8.265625 88.511719 7.746094 C 88.828125 7.214844 88.984375 6.617188 88.984375 5.949219 C 88.984375 5.28125 88.828125 4.667969 88.511719 4.148438 C 88.195312 3.625 87.773438 3.210938 87.238281 2.90625 C 86.710938 2.605469 86.117188 2.453125 85.46875 2.453125 C 84.824219 2.453125 84.226562 2.605469 83.695312 2.90625 C 83.160156 3.210938 82.738281 3.617188 82.414062 4.148438 C 82.097656 4.667969 81.941406 5.273438 81.941406 5.949219 C 81.941406 6.625 82.097656 7.222656 82.414062 7.746094 C 82.730469 8.273438 83.160156 8.6875 83.695312 8.984375 Z M 84.019531 4.992188 C 84.160156 4.714844 84.355469 4.5 84.605469 4.339844 C 84.851562 4.179688 85.140625 4.101562 85.46875 4.101562 C 85.800781 4.101562 86.085938 4.179688 86.328125 4.339844 C 86.578125 4.5 86.765625 4.714844 86.90625 4.992188 C 87.050781 5.265625 87.117188 5.582031 87.117188 5.941406 C 87.117188 6.300781 87.050781 6.625 86.90625 6.902344 C 86.765625 7.175781 86.578125 7.398438 86.328125 7.550781 C 86.078125 7.707031 85.792969 7.78125 85.46875 7.78125 C 85.148438 7.78125 84.851562 7.707031 84.605469 7.550781 C 84.355469 7.398438 84.160156 7.175781 84.019531 6.902344 C 83.875 6.625 83.808594 6.300781 83.808594 5.941406 C 83.808594 5.582031 83.875 5.265625 84.019531 4.992188 Z M 84.019531 4.992188 "/>
<path fill-rule="nonzero" fill="rgb(0%, 33.332825%, 64.704895%)" fill-opacity="1" d="M 6.617188 7.699219 C 6.894531 8.226562 7.292969 8.648438 7.804688 8.972656 C 8.316406 9.285156 8.925781 9.445312 9.628906 9.445312 C 10.078125 9.445312 10.492188 9.378906 10.871094 9.246094 C 11.246094 9.109375 11.578125 8.925781 11.847656 8.679688 C 12.125 8.433594 12.328125 8.152344 12.457031 7.820312 L 11.011719 7.125 C 10.882812 7.351562 10.703125 7.53125 10.476562 7.660156 C 10.25 7.789062 9.972656 7.859375 9.648438 7.859375 C 9.296875 7.859375 8.996094 7.78125 8.746094 7.621094 C 8.5 7.460938 8.308594 7.238281 8.191406 6.953125 C 8.128906 6.808594 8.085938 6.648438 8.070312 6.480469 L 12.675781 6.480469 C 12.707031 6.386719 12.726562 6.28125 12.742188 6.15625 C 12.757812 6.035156 12.757812 5.902344 12.757812 5.773438 C 12.757812 5.304688 12.683594 4.875 12.539062 4.476562 C 12.398438 4.078125 12.1875 3.734375 11.90625 3.425781 C 11.628906 3.121094 11.289062 2.890625 10.890625 2.722656 C 10.492188 2.554688 10.027344 2.46875 9.507812 2.46875 C 8.882812 2.46875 8.316406 2.621094 7.820312 2.921875 C 7.324219 3.226562 6.925781 3.632812 6.632812 4.164062 C 6.335938 4.683594 6.195312 5.28125 6.195312 5.957031 C 6.195312 6.632812 6.335938 7.191406 6.617188 7.722656 Z M 8.703125 4.15625 C 8.925781 4.003906 9.199219 3.925781 9.507812 3.925781 C 9.816406 3.925781 10.101562 4.003906 10.320312 4.164062 C 10.539062 4.324219 10.695312 4.539062 10.785156 4.816406 C 10.816406 4.90625 10.824219 5.015625 10.832031 5.113281 L 8.128906 5.113281 C 8.152344 5.023438 8.160156 4.921875 8.191406 4.847656 C 8.300781 4.546875 8.46875 4.316406 8.695312 4.15625 Z M 8.703125 4.15625 "/>
<path fill-rule="nonzero" fill="rgb(0%, 33.332825%, 64.704895%)" fill-opacity="1" d="M 36.085938 2.589844 L 37.890625 2.589844 L 37.890625 9.292969 L 36.085938 9.292969 Z M 36.085938 2.589844 "/>
<path fill-rule="nonzero" fill="rgb(0%, 33.332825%, 64.704895%)" fill-opacity="1" d="M 47.113281 8.980469 C 47.640625 9.285156 48.226562 9.4375 48.886719 9.4375 C 49.386719 9.4375 49.84375 9.355469 50.257812 9.179688 C 50.671875 9 51.035156 8.757812 51.328125 8.449219 C 51.621094 8.144531 51.832031 7.789062 51.953125 7.390625 L 50.386719 6.695312 C 50.273438 7.03125 50.085938 7.292969 49.820312 7.492188 C 49.558594 7.691406 49.242188 7.78125 48.882812 7.78125 C 48.566406 7.78125 48.285156 7.707031 48.046875 7.550781 C 47.796875 7.398438 47.609375 7.175781 47.464844 6.902344 C 47.324219 6.625 47.253906 6.300781 47.253906 5.941406 C 47.253906 5.582031 47.324219 5.261719 47.464844 4.984375 C 47.609375 4.707031 47.796875 4.484375 48.046875 4.332031 C 48.292969 4.179688 48.574219 4.101562 48.882812 4.101562 C 49.234375 4.101562 49.542969 4.203125 49.8125 4.394531 C 50.085938 4.59375 50.273438 4.851562 50.386719 5.191406 L 51.953125 4.5 C 51.824219 4.085938 51.613281 3.71875 51.3125 3.410156 C 51.019531 3.105469 50.65625 2.867188 50.242188 2.691406 C 49.820312 2.523438 49.371094 2.429688 48.882812 2.429688 C 48.21875 2.429688 47.632812 2.582031 47.097656 2.882812 C 46.570312 3.191406 46.148438 3.605469 45.847656 4.125 C 45.539062 4.652344 45.386719 5.246094 45.386719 5.910156 C 45.386719 6.578125 45.539062 7.167969 45.855469 7.707031 C 46.164062 8.234375 46.585938 8.65625 47.105469 8.964844 Z M 47.113281 8.980469 "/>
<path fill-rule="nonzero" fill="rgb(0%, 33.332825%, 64.704895%)" fill-opacity="1" d="M 96.460938 7.390625 L 94.894531 6.695312 C 94.78125 7.03125 94.59375 7.292969 94.328125 7.492188 C 94.066406 7.691406 93.75 7.78125 93.390625 7.78125 C 93.074219 7.78125 92.792969 7.707031 92.554688 7.550781 C 92.304688 7.398438 92.117188 7.175781 91.972656 6.902344 C 91.832031 6.625 91.761719 6.300781 91.761719 5.941406 C 91.761719 5.582031 91.832031 5.261719 91.972656 4.984375 C 92.117188 4.707031 92.304688 4.484375 92.554688 4.332031 C 92.800781 4.179688 93.082031 4.101562 93.390625 4.101562 C 93.742188 4.101562 94.050781 4.203125 94.320312 4.394531 C 94.59375 4.59375 94.78125 4.851562 94.894531 5.191406 L 96.460938 4.5 C 96.332031 4.085938 96.121094 3.71875 95.820312 3.410156 C 95.527344 3.105469 95.164062 2.867188 94.75 2.691406 C 94.328125 2.523438 93.878906 2.429688 93.390625 2.429688 C 92.726562 2.429688 92.140625 2.582031 91.605469 2.882812 C 91.078125 3.191406 90.65625 3.605469 90.355469 4.125 C 90.046875 4.652344 89.894531 5.246094 89.894531 5.910156 C 89.894531 6.578125 90.046875 7.167969 90.363281 7.707031 C 90.671875 8.234375 91.09375 8.65625 91.613281 8.964844 C 92.140625 9.269531 92.726562 9.421875 93.390625 9.421875 C 93.886719 9.421875 94.34375 9.339844 94.757812 9.164062 C 95.171875 8.984375 95.535156 8.742188 95.828125 8.433594 C 96.121094 8.128906 96.332031 7.773438 96.453125 7.375 Z M 96.460938 7.390625 "/>
<path fill-rule="nonzero" fill="rgb(0%, 33.332825%, 64.704895%)" fill-opacity="1" d="M 80.621094 9.292969 L 80.621094 0.152344 L 78.757812 0.152344 L 78.757812 4.101562 L 75.261719 4.101562 L 75.261719 0.152344 L 73.398438 0.152344 L 73.398438 9.292969 L 75.261719 9.292969 L 75.261719 5.757812 L 78.757812 5.757812 L 78.757812 9.292969 Z M 80.621094 9.292969 "/>
<path fill-rule="nonzero" fill="rgb(0%, 33.332825%, 64.704895%)" fill-opacity="1" d="M 120.585938 5.382812 C 120.585938 5.121094 120.636719 4.890625 120.734375 4.707031 C 120.832031 4.523438 120.976562 4.371094 121.164062 4.261719 C 121.351562 4.15625 121.554688 4.101562 121.789062 4.101562 C 122.023438 4.101562 122.242188 4.15625 122.421875 4.261719 C 122.601562 4.371094 122.746094 4.515625 122.84375 4.707031 C 122.941406 4.890625 122.992188 5.121094 122.992188 5.382812 L 122.992188 9.292969 L 124.800781 9.292969 L 124.800781 4.984375 C 124.800781 4.476562 124.695312 4.03125 124.484375 3.648438 C 124.273438 3.265625 123.988281 2.976562 123.609375 2.761719 C 123.234375 2.546875 122.804688 2.4375 122.300781 2.4375 C 121.839844 2.4375 121.441406 2.53125 121.105469 2.730469 C 120.886719 2.851562 120.71875 3.035156 120.578125 3.242188 L 120.578125 0 L 118.769531 0 L 118.769531 9.285156 L 120.578125 9.285156 L 120.578125 5.375 Z M 120.585938 5.382812 "/>
<path fill-rule="nonzero" fill="rgb(0%, 33.332825%, 64.704895%)" fill-opacity="1" d="M 64.882812 9.238281 C 65.261719 9.101562 65.589844 8.917969 65.863281 8.671875 C 66.132812 8.425781 66.34375 8.144531 66.472656 7.8125 L 65.027344 7.117188 C 64.898438 7.34375 64.71875 7.523438 64.492188 7.652344 C 64.265625 7.78125 63.988281 7.851562 63.664062 7.851562 C 63.308594 7.851562 63.007812 7.773438 62.761719 7.613281 C 62.511719 7.453125 62.324219 7.230469 62.203125 6.945312 C 62.144531 6.800781 62.097656 6.640625 62.082031 6.472656 L 66.691406 6.472656 C 66.71875 6.378906 66.742188 6.273438 66.757812 6.148438 C 66.773438 6.027344 66.773438 5.894531 66.773438 5.765625 C 66.773438 5.296875 66.699219 4.867188 66.554688 4.46875 C 66.410156 4.070312 66.199219 3.726562 65.921875 3.417969 C 65.644531 3.113281 65.304688 2.882812 64.90625 2.714844 C 64.507812 2.546875 64.039062 2.460938 63.519531 2.460938 C 62.898438 2.460938 62.332031 2.613281 61.835938 2.914062 C 61.339844 3.21875 60.941406 3.625 60.644531 4.15625 C 60.351562 4.675781 60.210938 5.273438 60.210938 5.949219 C 60.210938 6.625 60.351562 7.183594 60.628906 7.714844 C 60.910156 8.242188 61.308594 8.664062 61.820312 8.984375 C 62.332031 9.300781 62.941406 9.460938 63.640625 9.460938 C 64.09375 9.460938 64.507812 9.394531 64.882812 9.261719 Z M 62.714844 4.15625 C 62.941406 4.003906 63.210938 3.925781 63.519531 3.925781 C 63.828125 3.925781 64.117188 4.003906 64.335938 4.164062 C 64.550781 4.324219 64.710938 4.539062 64.800781 4.816406 C 64.832031 4.90625 64.839844 5.015625 64.847656 5.113281 L 62.144531 5.113281 C 62.167969 5.023438 62.175781 4.921875 62.203125 4.847656 C 62.316406 4.546875 62.484375 4.316406 62.707031 4.15625 Z M 62.714844 4.15625 "/>
<path fill-rule="nonzero" fill="rgb(0%, 33.332825%, 64.704895%)" fill-opacity="1" d="M 2.28125 9.292969 L 4.148438 9.292969 L 4.148438 1.808594 L 6.382812 1.808594 L 6.382812 0.152344 L 0 0.152344 L 0 1.808594 L 2.28125 1.808594 Z M 2.28125 9.292969 "/>
<path fill-rule="nonzero" fill="rgb(0%, 33.332825%, 64.704895%)" fill-opacity="1" d="M 107.398438 3.917969 C 107.71875 3.917969 108.007812 4.003906 108.253906 4.171875 C 108.511719 4.339844 108.683594 4.5625 108.78125 4.839844 L 110.121094 4.203125 C 109.917969 3.648438 109.578125 3.210938 109.089844 2.90625 C 108.601562 2.597656 108.035156 2.445312 107.398438 2.445312 C 106.90625 2.445312 106.472656 2.53125 106.09375 2.707031 C 105.71875 2.882812 105.425781 3.128906 105.214844 3.433594 C 105.003906 3.75 104.898438 4.109375 104.898438 4.523438 C 104.898438 5 105.039062 5.414062 105.335938 5.757812 C 105.621094 6.101562 106.035156 6.355469 106.578125 6.507812 L 107.699219 6.832031 C 107.839844 6.871094 107.960938 6.921875 108.058594 6.976562 C 108.15625 7.03125 108.226562 7.101562 108.277344 7.167969 C 108.324219 7.238281 108.351562 7.324219 108.351562 7.421875 C 108.351562 7.605469 108.285156 7.757812 108.148438 7.867188 C 108.015625 7.972656 107.816406 8.027344 107.5625 8.027344 C 107.207031 8.027344 106.886719 7.929688 106.597656 7.722656 C 106.3125 7.515625 106.078125 7.230469 105.914062 6.878906 L 104.589844 7.515625 C 104.785156 8.105469 105.144531 8.570312 105.679688 8.917969 C 106.214844 9.261719 106.839844 9.4375 107.5625 9.4375 C 108.074219 9.4375 108.519531 9.355469 108.902344 9.179688 C 109.277344 9 109.570312 8.757812 109.789062 8.449219 C 110 8.144531 110.105469 7.773438 110.105469 7.359375 C 110.105469 6.878906 109.964844 6.472656 109.671875 6.140625 C 109.382812 5.8125 108.960938 5.566406 108.421875 5.398438 L 107.375 5.074219 C 107.214844 5.03125 107.082031 4.976562 106.96875 4.914062 C 106.863281 4.859375 106.78125 4.792969 106.734375 4.714844 C 106.6875 4.640625 106.660156 4.5625 106.660156 4.46875 C 106.660156 4.300781 106.726562 4.164062 106.855469 4.0625 C 106.992188 3.964844 107.171875 3.917969 107.40625 3.917969 Z M 107.398438 3.917969 "/>
<path fill-rule="nonzero" fill="rgb(0%, 33.332825%, 64.704895%)" fill-opacity="1" d="M 57.972656 2.769531 C 57.597656 2.554688 57.167969 2.445312 56.664062 2.445312 C 56.203125 2.445312 55.804688 2.539062 55.46875 2.738281 C 55.25 2.859375 55.082031 3.042969 54.941406 3.25 L 54.941406 0.0078125 L 53.132812 0.0078125 L 53.132812 9.292969 L 54.941406 9.292969 L 54.941406 5.382812 C 54.941406 5.121094 54.992188 4.890625 55.089844 4.707031 C 55.1875 4.523438 55.332031 4.371094 55.519531 4.261719 C 55.707031 4.15625 55.910156 4.101562 56.144531 4.101562 C 56.378906 4.101562 56.597656 4.15625 56.777344 4.261719 C 56.957031 4.371094 57.101562 4.515625 57.199219 4.707031 C 57.296875 4.890625 57.347656 5.121094 57.347656 5.382812 L 57.347656 9.292969 L 59.15625 9.292969 L 59.15625 4.984375 C 59.15625 4.476562 59.050781 4.03125 58.839844 3.648438 C 58.628906 3.265625 58.34375 2.976562 57.964844 2.761719 Z M 57.972656 2.769531 "/>
<path fill-rule="nonzero" fill="rgb(0%, 33.332825%, 64.704895%)" fill-opacity="1" d="M 41.761719 3.917969 C 42.085938 3.917969 42.371094 4.003906 42.617188 4.171875 C 42.875 4.339844 43.046875 4.5625 43.144531 4.839844 L 44.484375 4.203125 C 44.28125 3.648438 43.941406 3.210938 43.453125 2.90625 C 42.964844 2.597656 42.40625 2.445312 41.761719 2.445312 C 41.269531 2.445312 40.835938 2.53125 40.457031 2.707031 C 40.082031 2.882812 39.789062 3.128906 39.578125 3.433594 C 39.367188 3.75 39.261719 4.109375 39.261719 4.523438 C 39.261719 5 39.40625 5.414062 39.699219 5.757812 C 39.984375 6.101562 40.398438 6.355469 40.941406 6.507812 L 42.0625 6.832031 C 42.203125 6.871094 42.324219 6.921875 42.421875 6.976562 C 42.519531 7.03125 42.589844 7.101562 42.640625 7.167969 C 42.6875 7.238281 42.714844 7.324219 42.714844 7.421875 C 42.714844 7.605469 42.648438 7.757812 42.511719 7.867188 C 42.378906 7.972656 42.183594 8.027344 41.925781 8.027344 C 41.570312 8.027344 41.25 7.929688 40.960938 7.722656 C 40.675781 7.515625 40.441406 7.230469 40.277344 6.878906 L 38.953125 7.515625 C 39.148438 8.105469 39.511719 8.570312 40.042969 8.917969 C 40.578125 9.261719 41.203125 9.4375 41.925781 9.4375 C 42.4375 9.4375 42.882812 9.355469 43.265625 9.179688 C 43.640625 9 43.9375 8.757812 44.152344 8.449219 C 44.363281 8.144531 44.46875 7.773438 44.46875 7.359375 C 44.46875 6.878906 44.328125 6.472656 44.035156 6.140625 C 43.746094 5.8125 43.324219 5.566406 42.785156 5.398438 L 41.738281 5.074219 C 41.578125 5.03125 41.445312 4.976562 41.332031 4.914062 C 41.226562 4.859375 41.144531 4.792969 41.097656 4.714844 C 41.054688 4.640625 41.023438 4.5625 41.023438 4.46875 C 41.023438 4.300781 41.089844 4.164062 41.21875 4.0625 C 41.355469 3.964844 41.535156 3.917969 41.769531 3.917969 Z M 41.761719 3.917969 "/>
<path fill-rule="nonzero" fill="rgb(0%, 33.332825%, 64.704895%)" fill-opacity="1" d="M 27.4375 9.292969 L 27.4375 4.984375 C 27.4375 4.476562 27.332031 4.03125 27.121094 3.648438 C 26.910156 3.265625 26.625 2.976562 26.246094 2.761719 C 25.871094 2.546875 25.433594 2.4375 24.9375 2.4375 C 24.476562 2.4375 24.078125 2.53125 23.742188 2.730469 C 23.523438 2.851562 23.355469 3.035156 23.214844 3.242188 L 23.214844 0 L 21.40625 0 L 21.40625 9.285156 L 23.214844 9.285156 L 23.214844 5.375 C 23.214844 5.113281 23.265625 4.882812 23.363281 4.699219 C 23.460938 4.515625 23.605469 4.363281 23.792969 4.253906 C 23.972656 4.148438 24.183594 4.09375 24.417969 4.09375 C 24.652344 4.09375 24.871094 4.148438 25.050781 4.253906 C 25.230469 4.363281 25.375 4.507812 25.472656 4.699219 C 25.570312 4.882812 25.621094 5.113281 25.621094 5.375 L 25.621094 9.285156 L 27.429688 9.285156 Z M 27.4375 9.292969 "/>
<path fill-rule="nonzero" fill="rgb(0%, 33.332825%, 64.704895%)" fill-opacity="1" d="M 113.6875 4.339844 C 113.9375 4.1875 114.214844 4.109375 114.523438 4.109375 C 114.878906 4.109375 115.1875 4.210938 115.457031 4.402344 C 115.730469 4.601562 115.917969 4.859375 116.03125 5.199219 L 117.597656 4.507812 C 117.46875 4.09375 117.257812 3.726562 116.957031 3.417969 C 116.65625 3.113281 116.300781 2.875 115.886719 2.699219 C 115.472656 2.53125 115.015625 2.4375 114.523438 2.4375 C 113.863281 2.4375 113.277344 2.589844 112.742188 2.890625 C 112.214844 3.199219 111.792969 3.613281 111.492188 4.132812 C 111.183594 4.660156 111.03125 5.253906 111.03125 5.917969 C 111.03125 6.585938 111.191406 7.175781 111.5 7.714844 C 111.808594 8.242188 112.222656 8.664062 112.75 8.972656 C 113.277344 9.277344 113.863281 9.429688 114.523438 9.429688 C 115.023438 9.429688 115.480469 9.347656 115.894531 9.171875 C 116.308594 8.992188 116.671875 8.75 116.964844 8.441406 C 117.257812 8.136719 117.46875 7.78125 117.589844 7.382812 L 116.023438 6.6875 C 115.910156 7.023438 115.722656 7.285156 115.457031 7.484375 C 115.195312 7.683594 114.878906 7.773438 114.515625 7.773438 C 114.203125 7.773438 113.921875 7.699219 113.683594 7.542969 C 113.433594 7.390625 113.246094 7.167969 113.101562 6.894531 C 112.960938 6.617188 112.890625 6.296875 112.890625 5.933594 C 112.890625 5.574219 112.960938 5.253906 113.101562 4.976562 C 113.246094 4.699219 113.433594 4.476562 113.683594 4.324219 Z M 113.6875 4.339844 "/>
</svg>
